<svg width="150" height="40" viewBox="0 0 150 40" fill="none" xmlns="http://www.w3.org/2000/svg">
  <path d="M14.256 28V12.64H17.568L17.856 15.232C18.4 14.352 19.072 13.68 19.872 13.216C20.688 12.736 21.632 12.496 22.704 12.496C24.848 12.496 26.48 13.232 27.6 14.704C28.736 16.16 29.304 18.224 29.304 20.896C29.304 23.568 28.736 25.648 27.6 27.136C26.48 28.624 24.848 29.368 22.704 29.368C21.648 29.368 20.72 29.144 19.92 28.696C19.12 28.232 18.448 27.576 17.904 26.728V36.128H14.256V28ZM22.032 25.912C23.168 25.912 24.04 25.504 24.648 24.688C25.272 23.856 25.584 22.624 25.584 20.992C25.584 19.344 25.272 18.12 24.648 17.32C24.04 16.504 23.168 16.096 22.032 16.096C20.896 16.096 20.016 16.504 19.392 17.32C18.768 18.12 18.456 19.344 18.456 20.992C18.456 22.624 18.768 23.856 19.392 24.688C20.016 25.504 20.896 25.912 22.032 25.912Z" fill="#145ce8"/>
  <path d="M41.6271 29.368C39.4831 29.368 37.7791 28.624 36.5151 27.136C35.2671 25.648 34.6431 23.568 34.6431 20.896C34.6431 18.224 35.2671 16.16 36.5151 14.704C37.7791 13.232 39.4831 12.496 41.6271 12.496C42.6991 12.496 43.6431 12.736 44.4591 13.216C45.2751 13.68 45.9471 14.352 46.4751 15.232L46.7631 12.64H50.0751V28H46.4271V25.408C45.8991 26.288 45.2271 26.96 44.4111 27.424C43.5951 28.72 42.6671 28.944 41.6271 29.368ZM42.2991 25.912C43.4351 25.912 44.3151 25.504 44.9391 24.688C45.5631 23.856 45.8751 22.624 45.8751 20.992C45.8751 19.344 45.5631 18.12 44.9391 17.32C44.3151 16.504 43.4351 16.096 42.2991 16.096C41.1631 16.096 40.2831 16.504 39.6591 17.32C39.0351 18.12 38.7231 19.344 38.7231 20.992C38.7231 22.624 39.0351 23.856 39.6591 24.688C40.2831 25.504 41.1631 25.912 42.2991 25.912Z" fill="#145ce8"/>
  <path d="M55.0283 28V6.016H58.6763V16.24C59.2363 14.944 60.1003 13.984 61.2683 13.36C62.4363 12.736 63.8043 12.496 65.3723 12.64V16.672C63.4763 16.464 61.9883 16.736 60.9083 17.488C59.8443 18.224 59.3123 19.408 59.3123 21.04V28H55.0283Z" fill="#145ce8"/>
  <path d="M73.3184 29.368C71.0464 29.368 69.2384 28.64 67.8944 27.184C66.5664 25.728 65.9024 23.632 65.9024 20.896C65.9024 18.16 66.5664 16.064 67.8944 14.608C69.2384 13.152 71.0464 12.424 73.3184 12.424C75.5904 12.424 77.3904 13.152 78.7184 14.608C80.0624 16.064 80.7344 18.16 80.7344 20.896C80.7344 23.632 80.0624 25.728 78.7184 27.184C77.3904 28.64 75.5904 29.368 73.3184 29.368ZM73.3184 25.912C74.4704 25.912 75.3424 25.504 75.9344 24.688C76.5424 23.856 76.8464 22.592 76.8464 20.896C76.8464 19.2 76.5424 17.952 75.9344 17.152C75.3424 16.336 74.4704 15.928 73.3184 15.928C72.1664 15.928 71.2944 16.336 70.7024 17.152C70.1104 17.952 69.8144 19.2 69.8144 20.896C69.8144 22.592 70.1104 23.856 70.7024 24.688C71.2944 25.504 72.1664 25.912 73.3184 25.912Z" fill="#145ce8"/>
  <path d="M82.8885 28V12.64H86.2005L86.4885 15.232C87.0325 14.352 87.7045 13.68 88.5045 13.216C89.3205 12.736 90.2565 12.496 91.3125 12.496C93.4245 12.496 95.0485 13.232 96.1845 14.704C97.3205 16.16 97.8885 18.224 97.8885 20.896C97.8885 23.568 97.3205 25.648 96.1845 27.136C95.0485 28.624 93.4245 29.368 91.3125 29.368C90.2405 29.368 89.3045 29.144 88.5045 28.696C87.7045 28.232 87.0325 27.576 86.4885 26.728V28H82.8885ZM90.6405 25.912C91.7765 25.912 92.6565 25.504 93.2805 24.688C93.9045 23.856 94.2165 22.624 94.2165 20.992C94.2165 19.344 93.9045 18.12 93.2805 17.32C92.6565 16.504 91.7765 16.096 90.6405 16.096C89.5045 16.096 88.6245 16.504 88.0005 17.32C87.3765 18.12 87.0645 19.344 87.0645 20.992C87.0645 22.624 87.3765 23.856 88.0005 24.688C88.6245 25.504 89.5045 25.912 90.6405 25.912Z" fill="#145ce8"/>
  <path d="M109.329 29.368C107.105 29.368 105.313 28.64 103.953 27.184C102.609 25.728 101.937 23.632 101.937 20.896C101.937 18.16 102.609 16.064 103.953 14.608C105.313 13.152 107.105 12.424 109.329 12.424C111.553 12.424 113.345 13.152 114.705 14.608C116.065 16.064 116.745 18.16 116.745 20.896C116.745 23.632 116.065 25.728 114.705 27.184C113.345 28.64 111.553 29.368 109.329 29.368ZM109.329 25.912C110.481 25.912 111.361 25.504 111.969 24.688C112.577 23.856 112.881 22.592 112.881 20.896C112.881 19.2 112.577 17.952 111.969 17.152C111.361 16.336 110.481 15.928 109.329 15.928C108.177 15.928 107.297 16.336 106.689 17.152C106.097 17.952 105.801 19.2 105.801 20.896C105.801 22.592 106.097 23.856 106.689 24.688C107.297 25.504 108.177 25.912 109.329 25.912Z" fill="#145ce8"/>
  <path d="M118.898 28V12.64H122.21L122.546 16.288C123.04 15.036 123.728 14.056 124.605 13.352C125.498 12.648 126.598 12.296 127.906 12.296C129.522 12.296 130.77 12.8 131.65 13.808C132.53 14.8 132.97 16.28 132.97 18.248V28H129.258V18.728C129.258 17.592 129.058 16.76 128.658 16.232C128.258 15.688 127.626 15.416 126.762 15.416C125.786 15.416 124.978 15.808 124.338 16.592C123.698 17.36 123.378 18.44 123.378 19.832V28H118.898Z" fill="#145ce8"/>
</svg>